PathFileType	4	(X/Y/Z)	C:\Users\dbl\Desktop\20210112(1)\20210112\bx_y_5_501.trc
DataRate	CameraRate	NumFrames	NumMarkers	Units	OrigDataRate	OrigDataStartFrame	OrigNumFrames
50.00	50.00	       7	43	mm	50.00	390	       519
Frame#	Time	Top.Head			R.Acromium			L.Acromium			Sternum			R.ASIS			L.ASIS			V.Sacral			R.Thigh.Upper			R.Thigh.Front			R.Thigh.Rear			R.Knee.Lat			R.Knee.Med			R.Shank.Upper			R.Shank.Front			R.Shank.Rear			R.Ankle.Lat			R.Midfoot.Lat			R.Toe.Lat			R.Toe.Tip			R.Toe.Med			R.Ankle.Med			R.Midfoot.Sup			R.Heel			L.Thigh.Upper			L.Thigh.Front			L.Thigh.Rear			L.Knee.Lat			L.Knee.Med			L.Shank.Upper			L.Shank.Front			L.Shank.Rear			L.Ankle.Lat			L.Midfoot.Lat			L.Toe.Lat			L.Toe.Tip			L.Toe.Med			L.Ankle.Med			L.Midfoot.Sup			L.Heel			origin1 front left			origin2 front right			origin 3 back right			origin 4 back leftt			
		X1	Y1	Z1	X2	Y2	Z2	X3	Y3	Z3	X4	Y4	Z4	X5	Y5	Z5	X6	Y6	Z6	X7	Y7	Z7	X8	Y8	Z8	X9	Y9	Z9	X10	Y10	Z10	X11	Y11	Z11	X12	Y12	Z12	X13	Y13	Z13	X14	Y14	Z14	X15	Y15	Z15	X16	Y16	Z16	X17	Y17	Z17	X18	Y18	Z18	X19	Y19	Z19	X20	Y20	Z20	X21	Y21	Z21	X22	Y22	Z22	X23	Y23	Z23	X24	Y24	Z24	X25	Y25	Z25	X26	Y26	Z26	X27	Y27	Z27	X28	Y28	Z28	X29	Y29	Z29	X30	Y30	Z30	X31	Y31	Z31	X32	Y32	Z32	X33	Y33	Z33	X34	Y34	Z34	X35	Y35	Z35	X36	Y36	Z36	X37	Y37	Z37	X38	Y38	Z38	X39	Y39	Z39	X40	Y40	Z40	X41	Y41	Z41	X42	Y42	Z42	X43	Y43	Z43	

390	7.780	-410.25742	121.49306	1744.49854	-477.96423	-56.07736	1463.18103	-510.27423	289.71442	1459.91125	-506.26740	106.77765	1327.27515	-682.87457	-7.28083	1043.77185	-686.48999	213.54504	1051.99109	-884.91449	89.70955	1065.32019	-740.82623	-73.13240	859.76508	-681.61682	-7.82133	807.11530	-767.28949	-57.26949	705.58435	-773.92334	-32.62845	612.72430	-755.83057	74.16957	571.49902	-781.18506	-30.71049	565.24670	-724.83081	11.50820	525.38806	-816.12122	-41.13086	480.92307	-773.79321	-9.60504	203.36351	-666.44135	-70.26046	159.50629	-624.29761	-80.40989	158.13660	-562.86182	-40.46788	162.50951	-604.35413	17.35870	168.57632	-723.86639	71.75073	220.13811	-676.86664	52.03257	162.69058	-796.86108	52.38436	173.56517	-746.42700	279.22589	876.28442	-685.02069	215.58202	822.95282	-787.25098	275.86832	745.29724	-800.68854	249.87935	632.57098	-754.52032	144.76700	571.48004	-794.58734	246.43922	571.65125	-734.24475	206.80298	536.50183	-825.66669	256.43991	494.65546	-775.90564	226.12173	201.89925	-667.46088	301.52847	157.43164	-629.55811	308.76941	160.59592	-562.70996	261.86517	164.79070	-596.97699	226.21957	173.77432	-716.55200	156.90897	220.23828	-676.82123	176.41528	160.73738	-798.30353	174.49348	182.12906	-528.17157	303.91489	146.15260	-517.81598	-73.08884	142.68599	-875.87451	-78.77415	141.02538	-882.72797	296.16272	144.56349	
391	7.800	-422.22333	120.99314	1753.46753	-485.57599	-56.09849	1470.89966	-517.61993	289.98096	1466.76343	-510.38528	108.00551	1333.27856	-679.71570	-7.06101	1044.84302	-683.51221	213.89615	1053.15393	-882.51581	90.20448	1064.56592	-737.09900	-74.00034	860.55469	-678.90076	-7.54036	807.14667	-764.85522	-56.67431	705.84442	-771.78357	-32.43671	613.07129	-753.81635	74.48679	571.75934	-779.34131	-30.33912	565.61865	-723.22150	11.84337	525.31042	-814.63446	-40.49053	481.33014	-773.74689	-9.42534	203.37328	-666.45264	-70.26511	159.50693	-624.35175	-80.35397	158.20795	-562.91754	-40.57006	162.47984	-604.31470	17.28651	168.59477	-723.63776	72.07339	220.02924	-676.72083	51.98615	162.55753	-796.70593	52.59273	173.53772	-743.46149	279.76587	876.72595	-682.16925	215.99879	823.22095	-784.63641	275.94086	745.68561	-798.80798	250.04111	632.88116	-752.73346	144.98099	571.76782	-793.00641	246.65002	571.94244	-732.79749	206.99115	536.51935	-824.46429	256.38605	494.89743	-775.87054	226.13165	201.92645	-667.53870	301.63123	157.35829	-629.61298	308.82315	160.58606	-562.76007	261.84357	164.79013	-597.02637	226.34964	173.83275	-716.34839	156.87016	220.11583	-676.83911	176.39978	160.76686	-798.30975	174.49315	182.12164	-528.12903	303.88199	146.18404	-517.82172	-73.06121	142.63983	-875.84631	-78.83850	141.08090	-882.67279	296.18454	144.57709	
392	7.820	-433.96725	120.35214	1761.95288	-493.16519	-56.06553	1478.25671	-524.90796	290.31430	1473.28247	-514.32648	109.03334	1339.32849	-676.53882	-6.94606	1045.82788	-680.31177	214.29742	1054.21509	-880.21936	90.82629	1063.87561	-733.38531	-74.78965	861.29810	-676.12372	-7.31185	807.19507	-762.38861	-55.94812	705.93927	-769.59882	-32.13128	613.43268	-751.86346	74.82362	571.97235	-777.50031	-29.90000	565.91144	-721.58734	12.19288	525.30310	-813.26941	-39.91556	481.75476	-773.65924	-9.23730	203.40514	-666.46472	-70.25812	159.54291	-624.40942	-80.30406	158.24997	-562.95532	-40.68194	162.44955	-604.27051	17.22660	168.61198	-723.39398	72.33054	220.00021	-676.53223	51.99085	162.37473	-796.54065	52.80077	173.49907	-740.52502	280.21140	877.07947	-679.26801	216.47247	823.49213	-781.95776	275.92950	746.01080	-796.88483	250.18204	633.16748	-750.93927	145.19421	572.10382	-791.39105	246.86893	572.19812	-731.30054	207.19351	536.54065	-823.25671	256.37347	495.18048	-775.84198	226.14502	201.94434	-667.66168	301.73877	157.35809	-629.69012	308.87393	160.57678	-562.81012	261.81311	164.81456	-597.05902	226.43358	173.86684	-716.14545	156.78409	220.01421	-676.84180	176.39604	160.80064	-798.31799	174.46840	182.11223	-528.07568	303.88367	146.24384	-517.82916	-73.03699	142.60306	-875.80963	-78.89001	141.13986	-882.59015	296.19186	144.56435	
393	7.840	-445.47913	119.65228	1769.94421	-500.71970	-55.99296	1485.27454	-532.12018	290.69861	1479.51404	-518.12103	109.73815	1345.27869	-673.51996	-6.87457	1046.62463	-676.99963	214.90834	1055.20911	-877.89404	91.53448	1063.18738	-729.69745	-75.50014	862.00452	-673.31561	-7.08435	807.25653	-760.07666	-55.27645	705.95917	-767.41833	-31.67833	613.72980	-749.95093	75.19464	572.15918	-775.65271	-29.43040	566.13062	-719.93341	12.54206	525.33655	-812.08527	-39.56942	482.15240	-773.56335	-9.01544	203.46527	-666.49274	-70.23479	159.59515	-624.48181	-80.25954	158.27742	-562.98169	-40.78521	162.43991	-604.24542	17.19604	168.62657	-723.17310	72.52311	220.02888	-676.35004	52.06807	162.16699	-796.40668	53.01396	173.47302	-737.54163	280.50394	877.31610	-676.29883	216.96022	823.76202	-779.23175	275.88980	746.25110	-794.87598	250.35471	633.49622	-749.16199	145.39754	572.38330	-789.72107	247.09143	572.44421	-729.73639	207.40331	536.56995	-822.00409	256.37811	495.54617	-775.79834	226.15419	201.95573	-667.79761	301.80716	157.44241	-629.77271	308.90073	160.56291	-562.83008	261.79865	164.87093	-597.10376	226.48923	173.88475	-715.96765	156.66110	219.94545	-676.83728	176.40741	160.82794	-798.30304	174.41220	182.11932	-528.04279	303.90375	146.30325	-517.83929	-73.02517	142.59398	-875.76697	-78.91243	141.18698	-882.48871	296.21420	144.54951	
394	7.860	-456.79224	118.93055	1777.44812	-508.24594	-55.91423	1491.94958	-539.22510	291.07376	1485.47461	-521.85388	110.13969	1351.01880	-670.73431	-6.81267	1047.18762	-673.73029	215.78418	1056.16260	-875.44586	92.27792	1062.40625	-726.03461	-76.14384	862.67932	-670.48779	-6.81187	807.35474	-757.85742	-54.70364	706.01666	-765.23438	-31.13832	613.94391	-748.03705	75.61511	572.38928	-773.76721	-28.96008	566.32184	-718.25525	12.91354	525.33588	-810.99524	-39.41634	482.51453	-773.48499	-8.74531	203.57156	-666.53418	-70.21040	159.65439	-624.55316	-80.21954	158.32428	-563.01080	-40.87281	162.45967	-604.24835	17.20251	168.65091	-723.01154	72.64942	220.08051	-676.20258	52.19902	161.98883	-796.30914	53.23512	173.47913	-734.38208	280.74484	877.50189	-673.27344	217.37715	824.02692	-776.45239	275.92889	746.44061	-792.74609	250.55528	633.85010	-747.38678	145.57574	572.55469	-787.95374	247.30505	572.70313	-728.10925	207.61592	536.62585	-820.66174	256.38409	495.95288	-775.70862	226.14630	201.96939	-667.89587	301.82114	157.54320	-629.83521	308.89740	160.54796	-562.79932	261.80069	164.94121	-597.14984	226.52525	173.89603	-715.82971	156.52118	219.91571	-676.83539	176.42300	160.84258	-798.25366	174.33472	182.16046	-528.03284	303.91306	146.33372	-517.85760	-73.01674	142.62083	-875.76984	-78.89126	141.19643	-882.39911	296.26251	144.56660	
395	7.880	-467.95889	118.16162	1784.46716	-515.72076	-55.84373	1498.24719	-546.19073	291.41287	1491.13818	-525.59863	110.35738	1356.51831	-668.16235	-6.74192	1047.54431	-670.61328	216.84610	1057.08167	-872.88324	92.94833	1061.49841	-722.39423	-76.73068	863.32434	-667.62207	-6.49549	807.53461	-755.55933	-54.11595	706.18652	-763.00555	-30.59000	614.12360	-746.07874	76.08659	572.68195	-771.83136	-28.51219	566.53247	-716.56677	13.33541	525.22638	-809.82471	-39.23241	482.86655	-773.42743	-8.43205	203.75040	-666.58734	-70.19503	159.73099	-624.60718	-80.18394	158.39207	-563.04449	-40.94851	162.48976	-604.26550	17.22638	168.68617	-722.88879	72.75321	220.11334	-676.09454	52.35719	161.87187	-796.21759	53.46587	173.51047	-731.01849	281.08136	877.70844	-670.20367	217.67853	824.29895	-773.56598	276.08395	746.61255	-790.50183	250.76294	634.19299	-745.58728	145.70161	572.68011	-786.07819	247.48184	572.95081	-726.45239	207.82991	536.68945	-819.20618	256.43445	496.33963	-775.55939	226.11256	201.99858	-667.93140	301.78885	157.60680	-629.86664	308.86523	160.53909	-562.73132	261.80853	164.99921	-597.15686	226.52490	173.90765	-715.72522	156.39647	219.91084	-676.82770	176.43639	160.83978	-798.16962	174.26010	182.22884	-528.03375	303.90204	146.32425	-517.87958	-73.01871	142.68213	-875.84509	-78.85269	141.16379	-882.35614	296.29968	144.59482	
396	7.900	-478.99487	117.32308	1791.00635	-523.09509	-55.75109	1504.12939	-552.95465	291.75082	1496.46228	-529.41895	110.50393	1361.77100	-665.73804	-6.64776	1047.76453	-667.71442	217.92393	1057.95422	-870.27600	93.45075	1060.52283	-718.77625	-77.26562	863.93964	-664.69336	-6.15056	807.78625	-753.10529	-53.44159	706.47052	-760.71509	-30.04966	614.30530	-744.03784	76.58864	572.97992	-769.87347	-28.08684	566.76880	-714.87329	13.78633	525.02307	-808.48169	-38.84464	483.22626	-773.35468	-8.09085	204.00343	-666.66376	-70.18554	159.84424	-624.65210	-80.13890	158.44449	-563.07446	-41.02291	162.50571	-604.28107	17.24391	168.71008	-722.72815	72.92678	220.08464	-676.01630	52.54809	161.80519	-796.10474	53.69801	173.54439	-727.56232	281.58096	877.96460	-667.08514	217.91206	824.59662	-770.53778	276.31793	746.77106	-788.20697	250.98018	634.53406	-743.74377	145.76628	572.86810	-784.14624	247.60374	573.15082	-724.79620	208.04437	536.71289	-817.66382	256.56378	496.68030	-775.37622	226.05000	202.04546	-667.91296	301.72607	157.63911	-629.87103	308.81030	160.53395	-562.66241	261.84189	165.04486	-597.10657	226.48547	173.92802	-715.62280	156.31667	219.89825	-676.81171	176.45982	160.80379	-798.05743	174.20868	182.29929	-528.04181	303.87604	146.29050	-517.89246	-73.05312	142.74542	-875.95306	-78.83304	141.09810	-882.38495	296.28040	144.58917	
